# xmcd
#
# Track frame offsets:
#	225
#	11904
#	29268
#	39585
#	56136
#	69405
#	84130
#	98299
#	114711
#	126345
#	140901
#	152229
#
# Disc length: 2279 seconds
#
# Revision: 0
# Processed by: cddbd v1.5.2PL0 Copyright (c) Steve Scherf et al.
# Submitted via: dBpowerAMP V4.0
#
DISCID=a108e40c
DTITLE=	Keelan - They Don't Make Em' Like That Anymore
DYEAR=2016
DGENRE=Country
TTITLE0=High Cotton
TTITLE1=Diana
TTITLE2=My Heart Skips a Beat
TTITLE3=Sing Me Back Home (feat. Louise Morris
TTITLE4=I'm On My Way
TTITLE5=Three Wooden Crosses
TTITLE6=Turn It On, Turn It Up, Turn Me Loose 	
TTITLE7=They Don't Make Em' Like That Anym
TTITLE8=Baby We're Really In Love
TTITLE9=Who's Gonna Fill Their Shoes
TTITLE10=Gonna Dance All Night
TTITLE11=This Song Is For You
EXTD=bob
EXTT0=
EXTT1=
EXTT2=
EXTT3=
EXTT4=
EXTT5=
EXTT6=
EXTT7=
EXTT8=
EXTT9=
EXTT10=
EXTT11=
PLAYORDER=
